<svg xmlns="http://www.w3.org/2000/svg" xml:space="preserve" fill-rule="evenodd" stroke-linejoin="round" stroke-miterlimit="2" clip-rule="evenodd" viewBox="0 0 185 185">
    <linearGradient id="grad1" x1="0%" y1="0%" x2="100%" y2="100%">
      <stop offset="0%" style="stop-color:#6a90f1;stop-opacity:1" />
        <stop offset="100%" style="stop-color:#a679f3;stop-opacity:1" />
    </linearGradient>
    <linearGradient id="grad2" x1="0%" y1="0%" x2="100%" y2="100%">
      <stop offset="0%" style="stop-color:#5371e7;stop-opacity:1" />
        <stop offset="100%" style="stop-color:#8f5beb;stop-opacity:1" />
    </linearGradient>
    <linearGradient id="grad3" x1="0%" y1="0%" x2="100%" y2="100%">
      <stop offset="0%" style="stop-color:#3c53db;stop-opacity:1" />
        <stop offset="100%" style="stop-color:#7743e2;stop-opacity:1" />
    </linearGradient>
    <linearGradient id="grad4" x1="0%" y1="0%" x2="100%" y2="100%">
      <stop offset="0%" style="stop-color:#2435d0;stop-opacity:1" />
    <stop offset="100%" style="stop-color:#5f2bd7;stop-opacity:1" />
    </linearGradient>


    <!-- Outer leaf -->
    <path fill="url(#grad2)" d="M149.193 62.099a68.1 68.1 0 0 1 3.656 22.09c0 37.716-30.623 68.346-68.347 68.346-37.725 0-68.347-30.63-68.347-68.347a68.1 68.1 0 0 1 3.655-22.09c31.246 8.647 57.501 35.808 64.692 67.426 7.19-31.618 33.445-58.779 64.691-67.425Z"/>
    <!-- Middle leaf -->
    <path fill="url(#grad3)" d="M130.257 88.56a48.172 48.172 0 0 1 2.586 15.626c0 26.68-21.662 48.347-48.347 48.347-26.686 0-48.348-21.668-48.348-48.347 0-5.47.91-10.728 2.587-15.626 22.102 6.116 40.674 25.33 45.76 47.695 5.087-22.366 23.66-41.579 45.762-47.695Z"/>
    <!-- Inner leaf -->
    <path fill="url(#grad4)" d="M114.167 111.059a31.234 31.234 0 0 1 1.676 10.131c0 17.299-14.045 31.348-31.347 31.348S53.15 138.488 53.15 121.19c0-3.546.59-6.955 1.677-10.131 14.33 3.966 26.372 16.423 29.67 30.924 3.298-14.501 15.34-26.958 29.67-30.924Z"/>
    <!-- Outer Ring -->
    <path fill="url(#grad1)" d="M84.502.003C37.867.003-.004 37.874-.004 84.51s37.871 84.506 84.506 84.506 84.506-37.871 84.506-84.506S131.137.003 84.502.003Zm0 7.012c42.77 0 77.494 34.723 77.494 77.494 0 42.77-34.723 77.495-77.494 77.495-42.77 0-77.494-34.724-77.494-77.495 0-42.77 34.723-77.494 77.494-77.494Z"/>
    <!-- Orb -->
    <circle fill="url(#grad1)" cx="11.605" cy="22.395" r="11.605" transform="translate(61.998 18.584) scale(1.93881)"/>
</svg>
